Coordinates
version=1
nRows=12
nColumns=24
inDegrees=yes

Units are S.I. units (second, meters, Newtons, ...)
Angles are in degrees.

endheader
time	pelvis_tilt	pelvis_list	pelvis_rotation	pelvis_tx	pelvis_ty	pelvis_tz	hip_flexion_r	hip_adduction_r	hip_rotation_r	knee_angle_r	ankle_angle_r	subtalar_angle_r	mtp_angle_r	hip_flexion_l	hip_adduction_l	hip_rotation_l	knee_angle_l	ankle_angle_l	subtalar_angle_l	mtp_angle_l	lumbar_extension	lumbar_bending	lumbar_rotation
      0.85850000	     -3.70318266	     -0.18133150	      0.74026330	     -0.33598859	      1.06955552	      0.33899435	     13.11187384	      3.11709634	     -1.94555034	    -16.64092549	     10.41645687	     -4.01641881	      4.57202791	     21.31518176	     -5.16315165	     -5.90592679	    -66.91509302	     12.77590900	      7.90439519	      3.14495603	     -2.95926763	      6.13162052	      0.98564381
      0.86266667	     -3.72062090	     -0.07754632	      0.56283093	     -0.33126945	      1.07013466	      0.33952425	     12.71669855	      3.06604575	     -1.74998633	    -16.35187222	     10.50766577	     -3.96237782	      4.57067306	     21.76062944	     -5.11488928	     -6.14770569	    -66.30657774	     12.93598763	      7.99775152	      3.15468496	     -2.94082140	      6.01235567	      1.06105309
      0.86683333	     -3.70869495	      0.00653592	      0.39912385	     -0.32655515	      1.07073000	      0.34004893	     12.27487867	      3.03795627	     -1.53705427	    -16.02996956	     10.58960198	     -3.99812296	      4.56347827	     22.17072027	     -5.08915152	     -6.37127853	    -65.66871301	     13.07870628	      8.12910318	      3.17208631	     -2.96419721	      5.89685703	      1.30368351
      0.87100000	     -3.70266718	      0.09145901	      0.23194673	     -0.32185664	      1.07126728	      0.34056101	     11.84885769	      3.00358439	     -1.33941756	    -15.72479336	     10.67905928	     -3.99773938	      4.55881601	     22.57857598	     -5.06355786	     -6.59932272	    -64.99876308	     13.20346930	      8.22779027	      3.18571058	     -2.97508318	      5.78828484	      1.43907143
      0.87516667	     -3.73629337	      0.18621745	      0.06551820	     -0.31716118	      1.07169418	      0.34105815	     11.47465182	      2.95267080	     -1.15738426	    -15.43617590	     10.77078958	     -3.94198748	      4.55933408	     23.02137287	     -5.02308845	     -6.82052751	    -64.29645626	     13.30845149	      8.28714145	      3.19062063	     -2.93931063	      5.67080164	      1.48684091
      0.87933333	     -3.72644652	      0.26723509	     -0.09974969	     -0.31249386	      1.07215704	      0.34155120	     11.04874286	      2.91935600	     -0.94374953	    -15.13451495	     10.85732139	     -4.00616414	      4.55465775	     23.40714548	     -4.99791531	     -7.03266959	    -63.55817525	     13.39958404	      8.37155080	      3.20078236	     -2.96334689	      5.56943846	      1.71877480
      0.88350000	     -3.74771370	      0.34793005	     -0.25877952	     -0.30783048	      1.07251525	      0.34201607	     10.66540441	      2.87683815	     -0.76829035	    -14.84951189	     10.94973268	     -3.95687799	      4.55546374	     23.82219593	     -4.96916268	     -7.23426141	    -62.79727550	     13.47683408	      8.41045386	      3.20355138	     -2.94771863	      5.47134941	      1.76199019
      0.88766667	     -3.75019208	      0.42758272	     -0.41956531	     -0.30319690	      1.07286104	      0.34247812	     10.26178345	      2.83817124	     -0.55505689	    -14.56069278	     11.03235643	     -4.02297538	      4.55116642	     24.20560745	     -4.93878024	     -7.42609400	    -61.99926039	     13.53253506	      8.44476029	      3.20943626	     -2.96815260	      5.36949097	      1.97859567
      0.89183333	     -3.78092505	      0.50884978	     -0.57469667	     -0.29855013	      1.07312606	      0.34291051	      9.90003319	      2.78884389	     -0.38833720	    -14.29808911	     11.13488606	     -3.99537547	      4.55190087	     24.60948291	     -4.90315297	     -7.60992046	    -61.17018676	     13.57578641	      8.45631544	      3.20982458	     -2.94042584	      5.28317268	      2.02201534
      0.89600000	     -3.80314889	      0.58314242	     -0.72534347	     -0.29393111	      1.07334052	      0.34333559	      9.53177378	      2.74570355	     -0.21707280	    -14.03738428	     11.24271862	     -3.99104607	      4.55235919	     24.99891504	     -4.87291960	     -7.78107835	    -60.31845908	     13.60563502	      8.44199027	      3.20860056	     -2.93229346	      5.19595488	      2.10363069
      0.90016667	     -3.85212450	      0.64105896	     -0.86017023	     -0.28931369	      1.07345738	      0.34372802	      9.18894527	      2.71640598	     -0.05780154	    -13.76835890	     11.35210812	     -3.97727801	      4.55325258	     25.41696139	     -4.85439477	     -7.92893996	    -59.45337337	     13.62518637	      8.40322050	      3.20596575	     -2.89182756	      5.11145373	      2.17636460
      0.90433333	     -3.87198003	      0.70257132	     -1.00178200	     -0.28472815	      1.07361131	      0.34410223	      8.82255559	      2.68267494	      0.12451954	    -13.51292446	     11.44075537	     -4.05074529	      4.54963687	     25.78472381	     -4.82209480	     -8.06084774	    -58.53903295	     13.61261527	      8.31244458	      3.19973746	     -2.89301590	      5.03742243	      2.36121657
